IKResults
version=1
nRows=14
nColumns=40
inDegrees=yes

Units are S.I. units (second, meters, Newtons, ...)
Angles are in degrees.

endheader
time	pelvis_tilt	pelvis_list	pelvis_rotation	pelvis_tx	pelvis_ty	pelvis_tz	hip_flexion_r	hip_adduction_r	hip_rotation_r	knee_angle_r	knee_angle_r_beta	ankle_angle_r	subtalar_angle_r	mtp_angle_r	hip_flexion_l	hip_adduction_l	hip_rotation_l	knee_angle_l	knee_angle_l_beta	ankle_angle_l	subtalar_angle_l	mtp_angle_l	lumbar_extension	lumbar_bending	lumbar_rotation	arm_flex_r	arm_add_r	arm_rot_r	elbow_flex_r	pro_sup_r	wrist_flex_r	wrist_dev_r	arm_flex_l	arm_add_l	arm_rot_l	elbow_flex_l	pro_sup_l	wrist_flex_l	wrist_dev_l
      0.99000000	     16.70344010	     -0.11353164	      1.41813381	      0.40056945	      0.93611344	     -1.02080735	      8.11819440	     -1.65298475	    -11.32322193	    -36.05111526	     -0.62921066	      5.96613125	    -11.91607621	      9.75021257	    -25.52252596	     -1.77996069	      8.11302003	    -11.62841298	     -0.20295409	     14.01145538	     -1.80356969	     -6.14311228	    -23.32133885	      1.26965062	     -6.93309560	    -13.12288783	    -10.27595347	     -2.26905249	     20.35301230	     89.95437384	      0.00000000	      0.00000000	      6.00584071	     12.80721248	      7.06550677	     35.52287460	     89.95437384	      0.00000000	      0.00000000
      1.00000000	     16.52246827	     -0.13248028	      1.76026884	      0.41487386	      0.93318365	     -1.02118117	      8.71870353	     -1.88001669	    -13.29988426	    -33.02432419	     -0.57638319	      5.88009306	    -10.64290360	      9.26446150	    -26.21846068	     -1.58532153	      8.05145372	    -11.81112220	     -0.20614297	     14.53748495	     -1.94812343	     -6.30429267	    -23.18027946	      1.48394963	     -7.37076835	    -13.37374947	    -10.15611393	     -2.96121417	     19.56879160	     89.95437384	      0.00000000	      0.00000000	      6.59286453	     13.09567094	      6.93001298	     37.75906253	     89.95437384	      0.00000000	      0.00000000
      1.01000000	     16.20486492	     -0.12882701	      1.95089163	      0.42914237	      0.92999228	     -1.02131821	      9.48056183	     -2.12983450	    -15.34698239	    -30.16585896	     -0.52649356	      5.37894301	     -9.25164845	      8.78110378	    -26.74490621	     -1.49500347	      7.94713198	    -12.03408692	     -0.21003444	     15.15018869	     -2.03465186	     -6.44733460	    -22.87293479	      1.61085659	     -7.69066433	    -13.56269138	    -10.08470245	     -3.47337625	     18.73195053	     89.95437384	      0.00000000	      0.00000000	      7.19248942	     13.36344993	      6.84602272	     39.85325796	     89.95437384	      0.00000000	      0.00000000
      1.02000000	     16.10424223	     -0.19033737	      2.45634541	      0.44354561	      0.92707833	     -1.02182445	      9.81895823	     -2.45092565	    -18.36324674	    -27.35987948	     -0.47751998	      4.65061890	     -7.08435778	      7.33684348	    -27.39503341	     -1.17047273	      7.80612921	    -12.45048165	     -0.21730190	     15.52701417	     -1.93998198	     -6.85109120	    -22.81947365	      1.93842912	     -8.21713317	    -13.81598529	     -9.96186343	     -4.47494707	     18.16139298	     89.95437384	      0.00000000	      0.00000000	      7.83626408	     13.57441195	      6.83441043	     41.86594541	     89.95437384	      0.00000000	      0.00000000
      1.03000000	     15.71929721	     -0.20441781	      2.61119357	      0.45784805	      0.92373401	     -1.02164144	     10.57520819	     -2.67766405	    -20.93844762	    -25.00842646	     -0.43647938	      3.09291417	     -4.99865642	      6.27629723	    -27.67309317	     -1.04548158	      7.81102772	    -13.03205335	     -0.22745224	     16.13347365	     -1.76390195	     -7.07912908	    -22.48748291	      2.05597243	     -8.55468305	    -13.87327624	     -9.91062265	     -5.03212554	     17.37778988	     89.95437384	      0.00000000	      0.00000000	      8.27658961	     13.84638088	      6.84737895	     43.96080066	     89.95437384	      0.00000000	      0.00000000
      1.04000000	     15.36313433	     -0.03004524	      2.78857612	      0.47253206	      0.92036350	     -1.02175970	     11.39826879	     -3.40760268	    -24.35256751	    -23.42629328	     -0.40886595	      0.64318692	     -1.97365902	     -7.02125831	    -28.08375233	     -1.13760785	      7.51246442	    -13.46188217	     -0.23495417	     16.44467017	     -1.00925899	     -9.61991916	    -22.15395222	      2.01188980	     -8.90869126	    -14.07966659	     -9.88447298	     -5.63736136	     16.82776090	     89.95437384	      0.00000000	      0.00000000	      8.72353891	     14.04702277	      6.89168857	     45.96250394	     89.95437384	      0.00000000	      0.00000000
      1.05000000	     14.98796003	     -0.20298893	      2.97054413	      0.48725672	      0.91710238	     -1.02129851	     12.17810541	     -3.40844081	    -26.78333563	    -22.16569953	     -0.38686444	      0.00537613	      0.99879269	     -7.36618993	    -28.28284574	     -0.75537872	      7.67144504	    -14.31285312	     -0.24980641	     16.85305967	     -1.20005867	     -9.58141874	    -21.79193939	      2.28725234	     -9.18156197	    -14.15749353	     -9.83157371	     -6.39399408	     16.22204949	     89.95437384	      0.00000000	      0.00000000	      9.08647645	     14.19357277	      7.12455951	     47.92199140	     89.95437384	      0.00000000	      0.00000000
      1.06000000	     14.48666023	     -0.32719075	      2.82472059	      0.50195853	      0.91385802	     -1.02038841	     13.13636729	     -3.12809940	    -27.58227182	    -21.20678143	     -0.37012816	     -0.12967928	      2.37650107	     -7.45484808	    -28.41037719	     -0.60310264	      7.77763340	    -15.05685207	     -0.26279164	     17.16619928	     -1.00048965	     -9.49139073	    -21.34131933	      2.40857451	     -9.24078587	    -14.16648755	     -9.88958043	     -6.62278042	     15.69336069	     89.95437384	      0.00000000	      0.00000000	      9.28867879	     14.44800208	      7.16353478	     49.96756167	     89.95437384	      0.00000000	      0.00000000
      1.07000000	     14.32416448	     -0.56085530	      3.40444048	      0.51739946	      0.91128269	     -1.02030688	     13.45937469	     -3.13532558	    -30.04309085	    -20.75029638	     -0.36216099	      0.98151046	      6.44576231	     -8.49806940	    -28.64330070	      0.15003575	      7.78148467	    -16.28350616	     -0.28420080	     17.09826380	     -1.64237063	     -9.61893077	    -21.12767426	      2.88794695	     -9.78837214	    -14.25840086	     -9.82191159	     -7.50977681	     15.22149342	     89.95437384	      0.00000000	      0.00000000	      9.57390542	     14.51301957	      7.40398446	     51.65179444	     89.95437384	      0.00000000	      0.00000000
      1.08000000	     13.96913099	     -0.81997584	      3.53024244	      0.53276315	      0.90873119	     -1.01954980	     13.99937629	     -2.52829433	    -29.83451114	    -20.36024524	     -0.35535332	      2.31189041	      6.87629165	     -8.67609347	    -28.78218461	      0.61032204	      7.36551694	    -17.31413131	     -0.30218860	     16.97997090	     -1.28927574	     -9.50171188	    -20.74615494	      3.25045862	     -9.99708597	    -14.26646446	     -9.89872421	     -7.65045639	     14.77966611	     89.95437384	      0.00000000	      0.00000000	      9.67305266	     14.58754295	      7.65563125	     53.38131700	     89.95437384	      0.00000000	      0.00000000
      1.09000000	     13.63968044	     -1.04019245	      3.58843900	      0.54819206	      0.90654159	     -1.01907804	     14.60018773	     -2.06802091	    -29.23882541	    -20.64030675	     -0.36024131	      2.77336019	      6.90703689	     -8.62229793	    -28.87409400	      0.96321540	      6.64758288	    -18.47358668	     -0.32242491	     16.41048763	     -1.13995678	     -9.31272419	    -20.40998580	      3.61009752	     -9.94045129	    -14.46149607	    -10.03507149	     -7.70129420	     14.67523362	     89.95437384	      0.00000000	      0.00000000	      9.97620007	     14.46733425	      7.76014519	     54.71539660	     89.95437384	      0.00000000	      0.00000000
      1.10000000	     13.63361757	     -1.67779637	      4.47166323	      0.56457809	      0.90527880	     -1.01903184	     14.33959391	     -1.20702354	    -29.29507658	    -20.64944944	     -0.36040088	      2.23033162	      7.00898025	     -8.68216508	    -29.03030307	      2.24430402	      5.76603933	    -20.11318739	     -0.35104134	     16.10868158	     -0.49506179	     -9.22351766	    -20.21061172	      4.61899800	    -10.89060260	    -14.20038914	    -10.08161008	     -8.20773120	     14.02627949	     89.95437384	      0.00000000	      0.00000000	      9.67090263	     14.39035846	      8.45972373	     56.28609257	     89.95437384	      0.00000000	      0.00000000
      1.11000000	     13.44169696	     -1.84378294	      4.57284964	      0.58079910	      0.90408379	     -1.01862693	     14.76995967	     -1.00979378	    -28.15140183	    -22.14145212	     -0.38644124	     -2.09137369	      6.09176326	     -8.00634372	    -29.10496001	      2.57319070	      4.88498722	    -21.54494475	     -0.37603022	     15.10444645	     -0.09221838	     -8.89049626	    -19.93575980	      4.94956351	    -10.97766048	    -14.17517253	    -10.20772058	     -8.36219755	     13.77303173	     89.95437384	      0.00000000	      0.00000000	      9.61353892	     14.24331360	      8.60961229	     57.42069557	     89.95437384	      0.00000000	      0.00000000
      1.12000000	     13.28016375	     -2.19355021	      4.84139503	      0.59727305	      0.90349054	     -1.01836794	     15.09827592	     -0.45163888	    -25.68439338	    -24.17239379	     -0.42188786	     -3.43880990	      5.73008929	     -7.66525755	    -29.05835996	      3.12560562	      3.62409419	    -23.19680591	     -0.40486064	     13.73964742	      0.10475968	     -8.50582687	    -19.61417490	      5.55476895	    -11.08661832	    -14.45128973	    -10.38780062	     -8.30821768	     14.10585048	     89.95437384	      0.00000000	      0.00000000	      9.64621938	     13.96298585	      8.71158273	     57.99540389	     89.95437384	      0.00000000	      0.00000000
